<?xml version="1.0" standalone="no"?>
<!DOCTYPE svg PUBLIC "-//W3C//DTD SVG 1.1//EN" "http://www.w3.org/Graphics/SVG/1.1/DTD/svg11.dtd" >
<svg xmlns="http://www.w3.org/2000/svg">
<defs>
  <font id="icon" horiz-adv-x="1001.0000000000001">
    <font-face font-family="icon"
      units-per-em="1001" ascent="858"
      descent="143" />
    <missing-glyph horiz-adv-x="0" />
    <glyph glyph-name="arrow-bottom"
      unicode="&#xEA01;"
      horiz-adv-x="1001" d="M500.54004 230.29292L132.29216 412.9554L167.84768 484.70708L500.54004 319.6622L833.15232 484.70708L868.70784 412.9554L500.54004 230.29292z" />
    <glyph glyph-name="arrow-left"
      unicode="&#xEA02;"
      horiz-adv-x="1001" d="M555.9954399999999 -10.70784L373.29292 357.5L555.9954399999999 725.70784L627.70708 690.11228L462.6622 357.5L627.70708 24.8877200000001L555.9954399999999 -10.70784z" />
    <glyph glyph-name="arrow-right"
      unicode="&#xEA03;"
      horiz-adv-x="1001" d="M445.0045600000001 -10.70784L373.29292 24.8877200000001L538.3378 357.5L373.29292 690.11228L445.0045600000001 725.70784L627.70708 357.5L445.0045600000001 -10.70784z" />
    <glyph glyph-name="arrow-top"
      unicode="&#xEA04;"
      horiz-adv-x="1001" d="M833.1122799999999 230.29292L500.5 395.2977600000001L167.88772 230.29292L132.29216 302.0045600000001L500.5 484.70708L868.70784 302.0045600000001L833.1122799999999 230.29292z" />
    <glyph glyph-name="checked"
      unicode="&#xEA05;"
      horiz-adv-x="1001" d="M813.3125 826.71875C640.014375 639.16810546875 516.76625 460.78677734375 391.1329296875 226.99853515625C313.92689453125 327.548203125 251.8140625000001 393.1606250000001 187.6875 451.34375H0C146.630859375 279.9225 225.36185546875 148.4825976562501 375.375 -111.71875H500.5C620.62 215.7959374999999 730.104375 446.47560546875 1001 826.71875z" />
    <glyph glyph-name="close"
      unicode="&#xEA06;"
      horiz-adv-x="1001" d="M111.7686127281205 689.6062762344609L168.3937237655392 746.2313872718796L889.2313872718796 25.3937237655391L832.6062762344609 -31.2313872718796L111.7686127281205 689.6062762344608zM111.7686127281205 25.3937237655392L832.6062762344609 746.2313872718796L889.2313872718796 689.6062762344609L168.3937237655392 -31.2313872718795L111.7686127281205 25.3937237655392z" />
    <glyph glyph-name="dot-h"
      unicode="&#xEA07;"
      horiz-adv-x="1000.9882290686736" d="M750.2261935559737 357.5000000000001A96.2626763875823 96.2626763875823 0 0 1 942.7515463311385 357.5000000000001A96.2626763875823 96.2626763875823 0 0 1 750.2261935559737 357.5000000000001M58.2366827375353 357.5000000000001A96.2626763875823 96.2626763875823 0 0 1 250.7620355127 357.5000000000001A96.2626763875823 96.2626763875823 0 0 1 58.2366827375353 357.5000000000001M404.2314381467545 357.5000000000001A96.2626763875823 96.2626763875823 0 0 1 596.7567909219192 357.5000000000001A96.2626763875823 96.2626763875823 0 0 1 404.2314381467545 357.5000000000001" />
    <glyph glyph-name="dot-v"
      unicode="&#xEA08;"
      horiz-adv-x="1000.9882290686736" d="M404.2314381467545 703.4947554092194A96.2626763875823 96.2626763875823 0 0 1 596.7567909219192 703.4947554092194A96.2626763875823 96.2626763875823 0 0 1 404.2314381467545 703.4947554092194M404.2314381467545 11.5052445907809A96.2626763875823 96.2626763875823 0 0 1 596.7567909219192 11.5052445907809A96.2626763875823 96.2626763875823 0 0 1 404.2314381467545 11.5052445907809M404.2314381467545 357.5000000000001A96.2626763875823 96.2626763875823 0 0 1 596.7567909219192 357.5000000000001A96.2626763875823 96.2626763875823 0 0 1 404.2314381467545 357.5000000000001" />
    <glyph glyph-name="download"
      unicode="&#xEA09;"
      horiz-adv-x="1000.9882290686736" d="M810.9229976561215 -5.3154162746941H190.0769957746541C170.5725625667519 -5.3154162746941 154.7642017953502 10.4929444967075 154.7642017953502 29.9973777046097V183.8787629350894H225.3897897539579V65.3101716839135H775.5984327454914V183.8787629350894H846.2240207040991V29.9973777046097C846.2357916354255 10.4929444967075 830.4274308640239 -5.3154162746941 810.9229976561215 -5.3154162746941zM465.187202736084 700.2930620884291H535.8127906946918V194.2254115710255H465.187202736084V700.293062088429zM500.4882257840613 158.9008466603953L500.4882257840613 158.9008466603953C491.1185644482194 158.9008466603953 482.1373438461499 162.6204609595486 475.5103095093671 169.2474952963312L266.8705517483135 377.9107949200378L316.8146133663756 427.8430856067734L500.4764548527349 244.1577022577611L684.1736091330737 427.8430856067735L734.1058998198093 377.9107949200378L525.4543711274292 169.2474952963313C518.8273367906465 162.6204609595486 509.846116188577 158.9008466603953 500.4882257840613 158.9008466603953z" />
    <glyph glyph-name="email"
      unicode="&#xEA0A;"
      horiz-adv-x="1001.0000000000001" d="M1001.0000000000002 -15.4026506024096L0 -15.4026506024096L0 446.7940240963857L65.1253012048193 446.7940240963857L65.1253012048193 49.6744096385543L935.8746987951808 49.6744096385543L935.8746987951808 446.7940240963857L1001.0000000000002 446.7940240963857L1001.0000000000002 -15.4026506024096zM487.2337349397591 235.6915662650603L0 424.5066987951808V730.4991325301206H1001.0000000000002V423.8313253012049zM65.1253012048193 469.0813493975905L487.9091084337349 305.5444819277109L935.8746987951808 469.5637590361447V665.3738313253014H65.1253012048193z" />
    <glyph glyph-name="fb"
      unicode="&#xEA0B;"
      horiz-adv-x="1000.9882290686736" d="M746.7419978833491 261.0725305738477H588.0933854656632V-142.894061618062H393.2020754938854V259.8365827845721H225.7723483066793V455.0103951081845H391.2481008936971C391.8248765286924 465.2393344308562 392.5546742709314 472.8551269990594 392.6135289275636 480.4591486359362C393.0372824553152 528.1785042333022 390.3535101128881 576.1803621825024 394.6263581843839 623.534818908749C397.7338840545626 657.9412511759174 406.0441615710255 693.112793979304 418.9451023047978 725.1414981185326C446.8539804797743 794.484054562559 504.0842485888994 830.1970602069616 574.4273341956726 845.8759407337725C635.8598247883349 859.565533866416 698.1398224365005 860.9898165569145 760.5728421919098 853.1386053621826C765.8344484948261 852.4794332079023 770.9901164158044 850.9374412041394 775.2158807619944 850.0193085606775V672.3488711194733C760.0078374882409 672.3488711194733 747.7189851834432 672.6784571966135 735.4536747412983 672.2900164628411C705.7791568673566 671.3601128880528 675.8574494355598 672.2193908748825 646.5360595014112 668.4291509877706C610.0579433207902 663.7207784571967 589.1763111476953 636.9065968955787 588.9408925211666 600.3343132643463C588.6937029633115 559.1713664158044 588.5406808560678 518.0084195672625 588.4582843367828 476.8454727187207C588.4347424741298 470.4538570084667 588.9762053151459 464.0504703668863 589.3764169802447 454.5866415804329H773.5444085136407C764.3866239416745 388.3516110065853 755.6996766227659 325.6478598306681 746.7419978833491 261.0725305738477" />
    <glyph glyph-name="global"
      unicode="&#xEA0C;"
      horiz-adv-x="1001" d="M500.5 858C500.5 858 500.5 858 500.5 858C500.5 858 500.5 858 500.5 858C500.5 858 500.5 858 500.5 858C222.4444444444445 858 0 635.5555555555555 0 357.5C0 79.4444444444446 222.4444444444445 -143 500.5 -143C500.5 -143 500.5 -143 500.5 -143C500.5 -143 500.5 -143 500.5 -143C500.5 -143 500.5 -143 500.5 -143C778.5555555555554 -143 1001 79.4444444444446 1001 357.5C1001 635.5555555555555 778.5555555555554 858 500.5 858zM889.7777777777778 413.1111111111111H771.6041666666667C764.6527777777778 524.3333333333333 743.7986111111112 621.6527777777778 702.0902777777778 698.1180555555555C806.3611111111111 635.5555555555555 875.8749999999999 531.2847222222222 889.7777777777778 413.1111111111111zM444.8888888888889 732.875V413.1111111111112H326.7152777777778C340.6180555555556 566.0416666666667 389.2777777777777 684.2152777777778 444.8888888888889 732.875zM444.8888888888889 308.8402777777779V-10.9236111111111C389.2777777777778 37.7361111111111 333.6666666666667 155.9097222222223 326.7152777777778 308.8402777777779H444.8888888888889zM549.1597222222222 -17.8749999999999V308.8402777777779H667.3333333333333C660.3819444444445 148.9583333333334 611.7222222222223 30.7847222222223 549.1597222222222 -17.8749999999999zM549.1597222222222 413.1111111111111V732.875C604.7708333333334 684.2152777777778 660.3819444444445 566.0416666666667 667.3333333333333 413.1111111111112H549.1597222222222zM291.9583333333333 691.1666666666667C257.2013888888889 614.7013888888889 229.3958333333334 517.3819444444445 222.4444444444445 406.1597222222223H111.2222222222222C125.125 531.2847222222222 194.6388888888889 635.5555555555555 291.9583333333333 691.1666666666667zM111.2222222222222 308.8402777777779H229.3958333333333C236.3472222222222 197.6180555555556 257.2013888888889 100.2986111111111 298.9097222222222 23.8333333333334C194.6388888888889 79.4444444444446 125.125 183.7152777777778 111.2222222222222 308.8402777777779zM709.0416666666666 23.8333333333334C743.798611111111 100.2986111111111 771.6041666666666 197.6180555555556 778.5555555555554 308.8402777777779H896.7291666666665C875.8749999999999 183.7152777777778 806.3611111111111 79.4444444444446 709.0416666666666 23.8333333333334z" />
    <glyph glyph-name="global2"
      unicode="&#xEA0D;"
      horiz-adv-x="1001" d="M500.4954967173136 858C500.4954967173136 858 500.4954967173136 858 500.4954967173136 858C500.4954967173136 858 500.4954967173136 858 500.4954967173136 858C500.4954967173136 858 500.4954967173136 858 500.4954967173136 858C224.3575656828308 858 0.8173357977734 634.4597701149426 0.8173357977734 358.3218390804598C0.8173357977734 82.1839080459769 224.3575656828308 -141.3563218390805 500.4954967173136 -141.3563218390805C500.4954967173136 -141.3563218390805 500.4954967173136 -141.3563218390805 500.4954967173136 -141.3563218390805C500.4954967173136 -141.3563218390805 500.4954967173136 -141.3563218390805 500.4954967173136 -141.3563218390805C500.4954967173136 -141.3563218390805 500.4954967173136 -141.3563218390805 500.4954967173136 -141.3563218390805C776.6334277517965 -141.3563218390805 1000.1736576368538 82.183908045977 1000.1736576368538 358.3218390804598C1001.8173357977734 634.4597701149426 778.2771059127159 858 500.4954967173136 858zM899.909289820762 407.632183908046H774.9897495908768C768.4150369471987 524.3333333333334 742.116186372486 629.528735632184 699.380554188578 708.4252873563219C807.8633128092677 645.9655172413793 883.4725082115666 535.83908045977 899.909289820762 407.632183908046zM500.4954967173136 -44.3793103448277C500.4954967173136 -44.3793103448277 500.4954967173136 -44.3793103448277 500.4954967173136 -44.3793103448277C423.2426231540952 -44.3793103448277 337.7713587862791 98.6206896551723 326.2656116598423 307.367816091954H676.3690599357043C664.8633128092677 98.6206896551723 579.3920484414516 -44.3793103448277 500.4954967173136 -44.3793103448277zM326.2656116598424 407.632183908046C337.7713587862791 616.3793103448276 423.2426231540952 759.3793103448276 500.4954967173136 759.3793103448276C500.4954967173136 759.3793103448276 500.4954967173136 759.3793103448276 500.4954967173136 759.3793103448276C577.7483702805321 759.3793103448276 663.219634648348 616.3793103448276 674.7253817747849 407.632183908046H326.2656116598424zM303.2541174069688 706.7816091954023C262.1621633839802 627.8850574712644 234.2196346483481 524.3333333333334 227.6449220046699 407.632183908046H102.7253817747849C117.5184852230607 535.83908045977 194.7713587862791 645.9655172413793 303.2541174069688 706.7816091954023zM102.7253817747849 309.0114942528736H227.6449220046699C234.2196346483481 192.3103448275862 260.5184852230608 87.1149425287356 303.2541174069688 9.8620689655173C194.7713587862791 69.0344827586207 117.5184852230607 179.1609195402299 102.7253817747849 309.0114942528736zM699.380554188578 8.2183908045976C740.4725082115665 87.1149425287355 768.4150369471987 190.6666666666666 774.9897495908768 309.0114942528735H899.909289820762C883.4725082115666 179.1609195402299 807.8633128092677 69.0344827586207 699.380554188578 8.2183908045976z" />
    <glyph glyph-name="link"
      unicode="&#xEA0E;"
      horiz-adv-x="1001" d="M737.1845407126003 323.0335422942277L671.3367836499935 388.8929414638118L898.9981855876309 616.5543434014492C904.6678916854896 622.224049499308 907.7879763553586 629.7564927135065 907.7879763553586 637.7779044207441S904.6678916854896 653.3317593421802 898.9981855876309 659.001465440039L801.9262976123806 756.0733534152895C790.5752433096859 767.4244077179842 770.8185877695084 767.4244077179842 759.4791755737907 756.0733534152895L531.8177736361532 528.411951477652C529.0353100686209 525.6294879101197 529.1982995663005 520.2974029145973 529.4078574918888 518.1436131238297C530.1413102314475 510.3317593421802 534.4139634920516 501.9960107465603 541.1314592178514 495.2901571277375L475.2837021552446 429.4307579581536C453.1636988987112 451.5391191077098 439.4609389866376 479.9575022388668 436.6901175260824 509.4236749979647C433.6515276050533 541.7072376455263 444.327339703075 572.6403158837418 465.9700165735463 594.2829927542132L693.6197764042066 821.9327525848734C716.880706144498 845.1936823251649 747.8021422757363 858 780.6910944861083 858C813.5916888034575 858 844.5131249346958 845.1820402181877 867.7740546749874 821.9211104778963L964.8343005432606 724.860864609623C988.0952302835522 701.5999348693316 1000.9131900653643 670.6784987380933 1000.9131900653643 637.7779044207441S988.0952302835522 573.9558739721566 964.8343005432606 550.6949442318651L737.1845407126003 323.0335422942277zM226.8527813704201 -142.988357893023C223.2902966354204 -142.988357893023 219.7045276864666 -142.8137262883662 216.0954745235585 -142.4761051860296C186.6176596574835 -139.7169258324516 158.1992765263266 -126.0141659203779 136.0909153767703 -103.8941626638445L39.0190274015199 -6.8222746885943C-9.0046638791118 41.1897744850603 -13.1725381769218 115.1520801107219 29.7053418198216 158.0183180004882L257.366743757459 385.6913620451027L323.2261429270431 319.8319628755188L95.5647409894056 92.1705609378815C90.8264034497166 87.4322233981925 92.1186773241773 71.7968737279165 104.8784265711039 59.0254823740128L201.9503145463543 -38.0464056012375C208.6678102721541 -44.7522592200602 216.991916760797 -49.0249124806643 224.7921284354693 -49.7583652202231C226.9342761192599 -49.9912073597656 232.2896453287364 -50.130912643491 235.0721088962688 -47.3484490759587L462.7451529408833 180.3013107547016C468.4032169317649 185.9710168525604 471.534943708611 193.5267442807132 471.534943708611 201.5365138809737S468.4148590387421 217.0787266954327 462.7567950478604 222.7367906863143L528.5929100034901 288.6078319628755C551.8538397437816 265.3585443295612 564.6717995255939 234.4371081983228 564.6717995255939 201.5365138809737C564.6717995255939 168.6475616706016 551.8654818507588 137.7261255393633 528.6161942174444 114.4651957990718L300.9315080658528 -113.1962061385657C281.7220315536 -132.4173247577954 255.1663855387829 -142.988357893023 226.8527813704201 -142.988357893023zM625.2761634920516 548.227099291704L691.1425479258219 482.3793422290971L378.6620167852211 169.8104148986403L312.7956323514508 235.6581719612472L625.2761634920516 548.2270992917038z" />
    <glyph glyph-name="linkedin"
      unicode="&#xEA0F;"
      horiz-adv-x="1001" d="M549.010677828226 419.647283186394A49.3744763333959 49.3744763333959 0 0 0 552.9985475212167 428.65128493716C617.5465997940861 519.6927405740012 743.4506203030588 514.873319577315 811.0208697872082 478.9288438691927A139.5933220784093 139.5933220784093 0 0 0 882.3554536676558 387.0468955167885A463.2813731007316 463.2813731007316 0 0 0 898.1281042022647 284.5604326893015C900.2740430505107 185.5253548427436 898.7271787973999 86.4276871131119 899.4335503349478 -12.6431563809168C899.5676715129631 -31.6078909522918 893.2908003818433 -39.4673919839931 873.7985225102743 -38.9577315075347C837.800398330946 -38.0099418495594 801.757567092279 -38.7789032701809 765.7326186773474 -38.6268992684301C741.8769318143449 -38.5196023260178 738.8279103674619 -35.6583505283563 738.765320484388 -12.0887888451198C738.532843775828 67.0516475958231 739.0514456641541 146.1742012130307 738.1662458892527 225.3056962421058A370.3353967360721 370.3353967360721 0 0 1 731.3081829867328 296.0948539986244C722.7423104174838 337.3237041205527 698.6809710815244 357.4508222347277 658.4714419125129 361.4208091039829C613.916386575803 365.8289251547552 575.61137813461 347.624210592134 561.6180685616719 310.5441755768149A218.3492778090415 218.3492778090415 0 0 1 547.642641812469 239.3079472269117C545.9437735576076 156.9933095729381 546.9630945105245 74.633964859626 546.8379147443768 -7.7074970299508C546.8379147443768 -36.5882573625963 544.7545657792045 -38.5553679734885 516.2761689806051 -38.5643093853562C481.5298424627536 -38.5643093853562 446.7835159449021 -37.9741762020884 412.0550722507859 -38.6268992684301C394.4583736951679 -38.9577315075347 386.0534465395372 -32.9491027324456 386.0713293632727 -14.2526105171014Q386.321688895568 224.1075470518351 385.6779072410942 462.4677046207715C385.6242587698881 480.9674857750265 392.7326812047033 489.6317138748202 411.9388338965059 489.2919402238479C446.6672775906221 488.6392171575063 481.4136041084736 488.8001625711248 516.1509892144575 489.2919402238479C533.4615625903094 489.5244169324079 540.7845789099492 482.058338022885 539.8457306638416 464.7835302945038C539.0946520669554 451.0584630775964 539.6937266620907 437.2618645657475 539.6937266620907 423.4920902895016zM113.9036935225924 225.1000437691489Q113.9036935225924 343.7704620771587 113.9573419937985 462.4408803851684C113.9573419937985 485.9031451259926 117.0778947356231 489.5691239917463 140.7100463019333 489.8641905833802C176.1001544742587 490.2844369411617 211.4455555872456 489.694303757894 246.8177809358357 489.1846432814356C271.406663571989 488.8359282185955 274.7149859630351 485.7690239479772 274.7686344342412 460.9029575439254Q275.1709979682874 272.7667104358157 275.036876790272 84.6304633277059C275.036876790272 52.4413806040143 274.545099137549 20.2522978803227 275.0994666733459 -11.847370724692C275.4124160887151 -29.7301944600762 267.8032745893092 -38.0635903207653 250.063513443808 -38.04570749703Q193.14248549408 -37.9562933783529 136.2303989562196 -38.3675983242668C118.0078015698631 -38.5196023260177 113.7785137564447 -28.2638029137748 113.8768692869893 -12.2497342587382C114.234525761697 66.8728193584694 114.0378147006078 146.0132557994123 114.0378147006078 225.1000437691491zM101.5645451451772 661.8164822109673A91.9803038829488 91.9803038829488 0 0 0 193.3302551433014 753.9845557431377H195.3867798728706A94.2424810854749 94.2424810854749 0 0 0 288.3774632968686 660.0997311323704A93.3930469580442 93.3930469580442 0 0 0 101.600310792648 661.8164822109673z" />
    <glyph glyph-name="map-marker"
      unicode="&#xEA10;"
      horiz-adv-x="1000.985286335842" d="M500.492643167921 -48.6559854186265C420.5385921331138 -48.6559854186265 346.0874514934149 63.5504174506115 297.7236374059267 157.6737270696144C253.6856405809032 243.3513934619004 202.2760980127 375.3771019520227 202.2760980127 465.4394402634056C202.2760980127 629.8793508936972 336.0527325376294 763.6559854186266 500.492643167921 763.6559854186266S798.7091883231421 629.8793508936972 798.7091883231421 465.4394402634056C798.6944746589841 316.2870266933208 639.5220557972721 -48.6559854186265 500.492643167921 -48.6559854186265zM500.492643167921 675.3887141345249C384.7402472365946 675.3887141345249 290.5580829609596 581.221263523048 290.5580829609596 465.4541539275635C290.5580829609596 318.4499353245532 449.5097968603011 41.2592162511759 500.492643167921 39.6259995296331C551.460775811383 40.9208019755408 710.4272033748825 317.9790980714957 710.4272033748825 465.4541539275634C710.4124897107245 581.221263523048 616.2450390992476 675.3887141345249 500.492643167921 675.3887141345249zM583.492422683443 467.6759172154281C583.492422683443 421.8281396989653 546.3404206843838 384.6614240357479 500.4779295037629 384.6614240357479S417.4634363240828 421.8281396989652 417.4634363240828 467.675917215428S454.6301519873001 550.6904103951081 500.4779295037629 550.6904103951081S583.492422683443 513.5236947318908 583.492422683443 467.6759172154281" />
    <glyph glyph-name="number"
      unicode="&#xEA11;"
      horiz-adv-x="1000.9882290686736" d="M129.4743591251177 566.4693438381939H906.3558266698024V495.8437558795862H129.4743591251177zM94.6324023988712 219.1915569143934H871.513869943556V148.5659689557856H94.6324023988711zM256.9300035277518 -26.9739299153339L346.530332784572 749.9075376293509L416.6850834901224 741.8091368767639L327.0965251646285 -35.0723306679209zM609.4340839604893 -34.6250352775163L699.0344132173096 742.2564322671685L769.1891639228598 734.1580315145815L679.5888346660395 -42.7234360301034z" />
    <glyph glyph-name="pdf"
      unicode="&#xEA12;"
      horiz-adv-x="1000.9882290686736" d="M514.1130820790216 -29.8342662276575H111.7237946848542C92.2311324082785 -29.8342662276575 76.4110007055504 -14.0259054562557 76.4110007055504 5.4785277516464V443.8750940733774H147.0365886641581V40.7913217309502H514.1130820790216V-29.8342662276575zM387.3166098306679 464.1917215428035H369.2835430385701V398.9219073377235H387.3166098306679C401.7242297742239 398.9219073377235 411.8354597836312 401.3584901222955 417.6385289275636 406.2316556914394C423.4533690028223 411.0930503292569 426.3607890404516 419.544579021637 426.3607890404516 431.5626999059267C426.3607890404516 443.5808207902165 423.4533690028223 452.0323494825965 417.6385289275636 456.8937441204141C411.8472307149577 461.7551387582316 401.7242297742239 464.1917215428035 387.3166098306679 464.1917215428035zM561.2321201787395 461.5079492003765H549.3081667450612V318.2792568203201H561.2321201787395C578.5236182972719 318.2792568203201 590.847783396049 323.7291980244593 598.1928445437442 334.6055385700849C605.5496766227658 345.4818791157104 609.2339781279398 363.9975540921921 609.2339781279398 390.129021636877C609.2339781279398 416.0603833490124 605.5496766227658 434.4465780809033 598.1928445437442 445.2758349012231C590.847783396049 456.0933207902165 578.5236182972719 461.5079492003765 561.2321201787395 461.5079492003765zM215.9200787864535 663.0969190968957V124.4002469426154H924.5772283631233V663.0969190968957H215.9200787864535zM451.9272518814676 378.3463193791158C438.4613064440265 367.4111241768581 416.3790392756351 361.9494120413924 385.6804503762936 361.9494120413924H369.2835430385702V278.6347601128881H325.3308854656633V501.1524459078082H385.6804503762936C416.379039275635 501.1524459078082 438.4613064440263 495.6907337723426 451.9272518814676 484.7555385700848C465.3931973189088 473.820343367827 472.1261700376294 456.0933207902165 472.1261700376294 431.5509289746003C472.1261700376293 407.0203080903106 465.3814263875823 389.2815145813736 451.9272518814676 378.3463193791158zM630.986659219191 304.789769520226C614.9899635465663 287.3570202257762 588.8114122765758 278.6347601128882 552.4392344778928 278.6347601128882H505.3555091721543V501.1524459078082H552.4392344778928C588.8114122765757 501.1524459078082 614.9781926152399 492.4890404515523 630.986659219191 475.1504586077141C646.9715839604892 457.8118767638759 654.9758172624647 429.4792450611478 654.9758172624647 390.129021636877C654.9758172624648 350.672859830668 646.9715839604892 322.234289746002 630.986659219191 304.789769520226zM834.3883525399812 462.4025399811855H739.7618356067732V414.4124529633116H825.8897401222954V375.6625470366888H739.7618356067733V278.6347601128882H695.8091780338664V501.1524459078082H834.3883525399812V462.4025399811855z" />
    <glyph glyph-name="reload"
      unicode="&#xEA13;"
      horiz-adv-x="1001" d="M896.7303081630799 489.203L839.99505816308 466.85925L826.80330816308 461.6397499999999C778.89830816308 595.452 653.98780816308 691.1547499999999 507.77030816308 691.1547499999999C377.56880816308 691.1547499999999 259.2005581630799 613.8274999999999 202.57255816308 495.2805L285.87005816308 456.56325C327.9478081630799 538.71675 411.56705816308 594.737 507.9490581630799 594.737C614.9845581630799 594.737 706.36155816308 525.63225 742.4690581630799 428.3922500000001L728.5265581630799 422.88675L665.9283081630798 398.2192500000001C653.1655581630798 393.21425 652.66505816308 374.7672500000001 665.1775581630799 369.0115L825.3018081630798 295.2950000000001C832.7020581630799 291.8630000000001 841.3535581630798 295.2950000000001 844.6068081630798 302.83825L916.2140581630798 468.00325C921.79105816308 480.87325 909.45730816308 494.24375 896.7303081630799 489.203M491.50405816308 111.50425C384.8618081630799 111.50425 293.84230816308 180.037 257.87780816308 276.4905000000001L271.78455816308 281.9245000000001L334.1325581630801 306.3775000000001C346.82380816308 311.4182500000001 347.32430816308 329.6150000000001 334.8833081630801 335.3707500000001L175.33105816308 408.5510000000001C167.96655816308 411.9115000000001 159.35080816308 408.5510000000001 156.09755816308 401.0077500000001L84.77630816308 237.2012500000001C79.23505816308 224.4385000000001 91.49730816308 211.1395000000001 104.18855816308 216.18025L160.67355816308 238.3452500000001L173.86530816308 243.49325C221.55580816308 110.8250000000001 346.0015581630801 15.8729999999999 491.68280816308 15.8729999999999C621.3838081630801 15.8729999999999 739.2515581630801 92.5925 795.6650581630801 210.1742499999999L712.72505816308 248.56975C670.82605816308 167.0597499999999 587.5285581630801 111.50425 491.50405816308 111.50425" />
    <glyph glyph-name="search"
      unicode="&#xEA14;"
      horiz-adv-x="1001.0000000000001" d="M413.6802125888116 39.9001625097153A409.0852822723098 409.0852822723098 0 1 0 822.6947678067866 449.0561718363599H822.6947678067866A409.5096445983184 409.5096445983184 0 0 0 413.6802125888116 39.9001625097153zM413.6802125888116 751.9094184978451A302.9947007701548 302.9947007701548 0 1 1 716.6041863046315 448.8439906733556V448.8439906733556A303.206881933159 303.206881933159 0 0 1 413.6802125888116 751.9094184978451zM628.0802906773836 161.5668884922061L704.6791612913443 234.9686902693499L996.47579062275 -69.5373533780151L919.8769200087892 -142.939155155159L628.0802906773836 161.5668884922061z" />
    <glyph glyph-name="share"
      unicode="&#xEA15;"
      horiz-adv-x="997.4377224199288" d="M797.950177935943 259.5373665480427C737.391459074733 259.5373665480427 683.9572953736655 234.6014234875445 648.3345195729537 191.8540925266905L395.4128113879003 320.0960854092528C398.9750889679715 334.3451957295374 398.9750889679715 348.5943060498222 398.9750889679715 362.8434163701068C398.9750889679715 377.0925266903915 398.9750889679715 391.3416370106762 395.4128113879003 405.5907473309608L648.3345195729537 533.832740213523C683.9572953736655 491.085409252669 737.391459074733 466.1494661921708 797.950177935943 466.1494661921708C908.3807829181494 466.1494661921708 997.4377224199288 555.20640569395 997.4377224199288 665.6370106761565S908.3807829181494 858 797.950177935943 858C687.5195729537365 858 598.4626334519572 768.9430604982207 598.4626334519572 658.5124555160143C598.4626334519572 644.2633451957295 598.4626334519572 630.0142348754448 602.0249110320284 615.7651245551601L349.103202846975 487.5231316725979C313.4804270462633 530.2704626334519 260.0462633451957 555.2064056939502 199.4875444839857 555.2064056939502C89.0569395017794 558.7686832740213 0 469.711743772242 0 359.2811387900356S89.0569395017794 159.7935943060499 199.4875444839858 159.7935943060499C260.0462633451957 159.7935943060499 313.4804270462634 184.729537366548 349.1032028469751 227.4768683274021L602.0249110320284 99.2348754448398C598.4626334519572 84.9857651245551 598.4626334519572 70.7366548042703 598.4626334519572 56.4875444839856C598.4626334519572 -53.9430604982208 687.5195729537365 -143 797.950177935943 -143C908.3807829181494 -143 997.4377224199288 -53.9430604982207 997.4377224199288 56.4875444839857S908.3807829181494 259.5373665480427 797.950177935943 259.5373665480427M797.950177935943 758.2562277580071C851.3843416370106 758.2562277580071 897.6939501779359 711.9466192170819 897.6939501779359 658.5124555160143S854.9466192170819 558.7686832740213 797.950177935943 558.7686832740213C744.5160142348753 558.7686832740213 698.20640569395 605.0782918149466 698.20640569395 658.5124555160143S744.5160142348753 758.2562277580071 797.950177935943 758.2562277580071M199.4875444839857 259.5373665480427C146.0533807829181 259.5373665480427 99.7437722419928 305.846975088968 99.7437722419928 359.2811387900356S146.0533807829181 459.0249110320285 199.4875444839857 459.0249110320285S299.2313167259786 412.7153024911032 299.2313167259786 359.2811387900356S252.9217081850533 259.5373665480427 199.4875444839857 259.5373665480427M797.950177935943 -43.2562277580071C744.5160142348753 -43.2562277580071 698.20640569395 3.0533807829181 698.20640569395 56.4875444839857C698.20640569395 109.9217081850534 744.5160142348753 156.2313167259787 797.950177935943 156.2313167259787C851.3843416370106 156.2313167259787 897.6939501779359 109.9217081850534 897.6939501779359 56.4875444839857C897.6939501779359 3.0533807829181 854.9466192170819 -43.2562277580071 797.950177935943 -43.2562277580071" />
    <glyph glyph-name="solution-asic"
      unicode="&#xEA16;"
      horiz-adv-x="1001" d="M380.6571021424006 -7.7554150476172A15.6759878240954 15.6759878240954 0 0 0 364.9811143183053 6.7644686744511L360.337102925417 69.4684199708327A313.7059088373186 313.7059088373186 0 0 0 285.6998058979429 100.085583689769L238.3093352072246 58.8087482504479A15.6759878240954 15.6759878240954 0 0 0 216.9605992892847 59.5141677025322L128.2247107125148 147.8777515684796A15.6759878240954 15.6759878240954 0 0 0 127.4115188441398 169.2264874864195L168.4826069432697 216.8325030097192A313.5197564819075 313.5197564819075 0 0 0 137.4833410211211 291.2934451741723L74.681414800839 295.6239368105785A15.6759878240954 15.6759878240954 0 0 0 60.0733536472602 311.2215446955535L59.7304414136081 436.4530924252953A15.6759878240954 15.6759878240954 0 0 0 74.2503251356764 452.1290802493907L136.9542764320579 456.7632941498888A314.1076060253111 314.1076060253111 0 0 0 167.5714401509942 531.4005911773629L126.3533896660134 578.7714668833012A15.6759878240954 15.6759878240954 0 0 0 127.0686066104878 600.1300002936312L215.3832030144851 688.9050788399612A15.6759878240954 15.6759878240954 0 0 0 236.7417364248151 689.7280682007263L284.3379544557247 648.6863725787665A313.5197564819075 313.5197564819075 0 0 0 358.7988966201776 679.6856385009152L363.1195907641939 742.4581722440271A15.6759878240954 15.6759878240954 0 0 0 378.7269961415589 757.0564359052158L442.2735317834855 757.2131957834569L442.3421142302159 725.8612201352661L393.3546522799179 725.7338527341954L389.2495029684829 666.2042889721931A15.6759878240954 15.6759878240954 0 0 0 377.1789923439295 652.0175199913868A282.4225156358583 282.4225156358583 0 0 1 290.961059311405 616.1195078742085A15.6759878240954 15.6759878240954 0 0 0 272.3458237702917 617.530346778377L227.198978836897 656.4459865516937L159.5962813454856 588.3730094255595L198.7862509057241 543.4319118323563A15.6759878240954 15.6759878240954 0 0 0 200.2362797794529 524.8852587379733A282.8634027934109 282.8634027934109 0 0 1 164.7889523122173 438.4909708424277A15.6759878240954 15.6759878240954 0 0 0 150.6609682857513 426.3420802787539L91.1509995085292 421.9430061956171L91.3959368182807 325.9275807730329L150.9255005802829 321.832228953988A15.6759878240954 15.6759878240954 0 0 0 165.1122695610892 309.7617183294346A282.4715030978085 282.4715030978085 0 0 1 201.0102816782677 223.54378529691A15.6759878240954 15.6759878240954 0 0 0 199.6092402664891 204.9285497557967L160.644613031222 159.8110972995722L228.7273876497462 92.0810324070902L273.7076752125099 131.2220145053782A15.6759878240954 15.6759878240954 0 0 0 292.2739232916729 132.7210308410574A282.9809727020917 282.9809727020917 0 0 1 378.6584136948285 97.2639058814317A15.6759878240954 15.6759878240954 0 0 0 390.8073042585024 83.1457193473558L395.2063783416391 23.6357505701337L442.2931267682656 23.7533204788144L442.361709214996 -7.5986551693763L380.6375071576205 -7.7554150476174zM442.3323167378259 249.0662529730153A125.7508148264151 125.7508148264151 0 1 0 442.3323167378259 500.5580851334553V469.2061094852645A94.3890416858343 94.3890416858343 0 1 1 442.3323167378259 280.428026113596zM772.8115325469265 655.3486674040071L662.0410835849126 725.8906126124363H495.6208778473601V757.2425882606269H666.6165125310704A15.6759878240954 15.6759878240954 0 0 0 675.0325584941315 754.783417670722L789.663219457829 681.811694349558zM862.0568907279794 -60.7206589082795A79.3009034051425 79.3009034051425 0 0 0 782.8441647543475 18.4920670653523A79.212725973632 79.212725973632 0 0 0 862.0568907279794 97.7145905313745A79.212725973632 79.212725973632 0 0 0 862.0568907279794 -60.7108614158894zM862.0568907279794 66.3528173907936A47.8607503254412 47.8607503254412 0 1 1 909.9176410534207 18.4920670653523A47.6060155232996 47.6060155232996 0 0 1 862.0568907279794 66.3626148831837zM838.1999967581843 562.311679668001A79.3009034051425 79.3009034051425 0 0 0 758.9970682769424 641.4754181796827A79.2029284812419 79.2029284812419 0 0 0 838.1999967581843 720.6881441533146A79.212725973632 79.212725973632 0 0 0 838.1999967581843 562.2626922060507zM838.1999967581843 689.3851559670742A47.8607503254412 47.8607503254412 0 1 1 886.0607470836255 641.4754181796827A47.6354080004698 47.6354080004698 0 0 1 838.1999967581843 689.3851559670742zM698.8698574791465 427.8215016296529A57.0605956797072 57.0605956797072 0 1 0 755.9304531588537 484.8820973093599A57.1193806340475 57.1193806340475 0 0 0 698.8698574791465 427.8215016296529zM698.8698574791465 510.5809198484864A25.7086200315164 25.7086200315164 0 1 1 724.5784775106629 484.8820973093601A25.6008476152258 25.6008476152258 0 0 1 698.8698574791465 510.5809198484863zM862.0568907279794 252.8480850355783A77.25322749562 77.25322749562 0 0 0 784.8918406638699 330.0131350996877A77.1552525717194 77.1552525717194 0 0 0 862.0568907279794 407.1683876714071A77.1650500641095 77.1650500641095 0 0 0 862.0568907279794 252.8480850355783zM862.0568907279794 375.8164120232165A45.8130744159187 45.8130744159187 0 1 1 907.8699651438982 330.0131350996878A45.6073270757275 45.6073270757275 0 0 1 862.0568907279794 375.8164120232164zM608.7721174601585 -13.6241129892629A57.1291781264376 57.1291781264376 0 0 0 551.7115217804513 43.4364826904442A57.0703931720972 57.0703931720972 0 0 0 608.7721174601585 100.4970783701514A57.0605956797072 57.0605956797072 0 0 0 608.7721174601585 -13.6241129892629zM608.7721174601585 69.1353052295706A25.7086200315164 25.7086200315164 0 1 1 634.4709399992848 43.4364826904442A25.5910501228357 25.5910501228357 0 0 1 608.7721174601585 69.1353052295706zM495.6208778473601 500.5580851334553H657.4950471159248V469.2061094852646H495.62087784736V500.5580851334553zM624.4481052842538 68.3221133611957H593.096129636063V249.0662529730153H495.6208778473601V280.4182286212061H608.7721174601585A15.6759878240954 15.6759878240954 0 0 0 624.4481052842539 264.7422407971107zM846.3809029038841 269.2196948193679H877.7230810596848V82.0288052148891H846.3809029038841V269.219694819368zM608.7721174601585 280.4182286212061H730.2708205892877V249.0662529730153H608.7721174601585V280.4182286212061z" />
    <glyph glyph-name="solution-ip"
      unicode="&#xEA17;"
      horiz-adv-x="1001" d="M500.4657087766347 284.5429729174212A15.6759878240954 15.6759878240954 0 0 0 492.6277148645871 286.649433781284L257.9287846607092 422.1781460129785A15.6759878240954 15.6759878240954 0 0 0 250.0907907486615 435.747672973211V706.8050974366001A15.6759878240954 15.6759878240954 0 0 0 257.9287846607092 720.3844218892227L492.6277148645871 855.9033366285272A15.6759878240954 15.6759878240954 0 0 0 508.3037026886824 855.9033366285272L743.0810128316808 720.3844218892227A15.6759878240954 15.6759878240954 0 0 0 750.9190067437286 706.8050974366001V435.7280779884309A15.6759878240954 15.6759878240954 0 0 0 743.0810128316808 422.1487535358083L508.3037026886824 286.6494337812839A15.6759878240954 15.6759878240954 0 0 0 500.4657087766347 284.5429729174212zM281.4427663968522 444.8005559416261L500.4657087766347 318.3247266783467L719.5376386183676 444.8005559416261V697.752214468185L500.4657087766347 824.2280437314645L281.4427663968522 697.752214468185zM500.4657087766347 555.6003973808101A15.7445702708258 15.7445702708258 0 0 0 492.6277148645871 557.6970607522829L257.9287846607092 693.2257729839775L273.6047724848046 720.3844218892227L500.4657087766347 589.3821511417357L727.4050250075854 720.3844218892227L743.0810128316807 693.2257729839775L508.3037026886824 557.6970607522829A15.6759878240954 15.6759878240954 0 0 0 500.4657087766347 555.6003973808101zM265.7569810803668 -122.0333662852724A15.6759878240954 15.6759878240954 0 0 0 257.9189871683191 -119.9367029137998L23.180866994881 15.5920093178949A15.6759878240954 15.6759878240954 0 0 0 15.3428730828333 29.1713337705174V300.2189607415166A15.6759878240954 15.6759878240954 0 0 0 23.180866994881 313.7982851941391L257.9287846607092 449.3269974258337A15.6759878240954 15.6759878240954 0 0 0 273.6047724848046 449.3269974258337L508.3037026886824 313.7982851941391A15.6759878240954 15.6759878240954 0 0 0 516.1416966007301 300.2189607415164V29.1321438009572A15.6759878240954 15.6759878240954 0 0 0 508.3037026886824 15.5626168407247L273.5949749924145 -119.9367029137998A15.617202869755 15.617202869755 0 0 0 265.7569810803668 -122.0333662852724zM46.694848731024 38.2242167389326L265.7569810803668 -88.2614100167369L484.8387084144896 38.2144192465424V291.1758752654914L265.7667785727569 417.651704528771L46.694848731024 291.1758752654914zM735.2430189196332 149.0142606857265A15.6759878240954 15.6759878240954 0 0 0 727.4050250075856 151.1207215495894L492.6277148645871 286.6494337812839L508.3037026886824 313.7982851941391L735.2430189196332 182.7960144466521L962.1431451810236 313.7982851941391L977.819133005119 286.6396362888939L743.0810128316808 151.1207215495894A15.6759878240954 15.6759878240954 0 0 0 735.2430189196332 149.0142606857265zM265.7667785727569 149.0142606857265A15.6759878240954 15.6759878240954 0 0 0 257.9287846607092 151.1207215495894L23.180866994881 286.6494337812839L38.8568548189763 313.7982851941391L265.7667785727569 182.7960144466521L492.6277148645871 313.7982851941391L508.3037026886824 286.6494337812839L273.6047724848046 151.1207215495894A15.6759878240954 15.6759878240954 0 0 0 265.7667785727569 149.0142606857265zM735.2430189196332 -122.0333662852724A15.6759878240954 15.6759878240954 0 0 0 727.4050250075856 -119.9367029137998L492.6277148645871 15.5920093178949A15.6759878240954 15.6759878240954 0 0 0 484.7897209525394 29.1615362781274V300.2189607415166A15.6759878240954 15.6759878240954 0 0 0 492.6277148645871 313.7982851941391L727.4050250075854 449.3269974258336A15.6759878240954 15.6759878240954 0 0 0 743.0810128316807 449.3269974258336L977.819133005119 313.7982851941391A15.6759878240954 15.6759878240954 0 0 0 985.6571269171666 300.2189607415164V29.1321438009572A15.6759878240954 15.6759878240954 0 0 0 977.819133005119 15.5626168407247L743.0810128316808 -119.9367029137998A15.6759878240954 15.6759878240954 0 0 0 735.2430189196332 -122.0333662852724zM516.1416966007301 38.2144192465424L735.2430189196332 -88.2614100167369L954.314948761366 38.2144192465426V291.1660777731014L735.2430189196332 417.6419070363809L516.1416966007301 291.1758752654914z" />
    <glyph glyph-name="solution-pd"
      unicode="&#xEA18;"
      horiz-adv-x="1001" d="M681.4351907134259 99.5271266235354H319.5550117941842A87.609176951913 87.609176951913 0 0 0 232.0438097661717 187.0481261439379V548.9283050631796A87.609176951913 87.609176951913 0 0 0 319.5550117941842 636.4395070911921H681.4351907134259A87.609176951913 87.609176951913 0 0 0 768.9463927414383 548.9283050631796V187.0481261439379A87.609176951913 87.609176951913 0 0 0 681.4351907134259 99.5271266235354zM319.5550117941842 605.0777339506112A56.2278088265521 56.2278088265521 0 0 1 263.3859879219725 548.9185075707895V187.0481261439379A56.2278088265521 56.2278088265521 0 0 1 319.5550117941842 130.8791022717262H681.4351907134259A56.2278088265521 56.2278088265521 0 0 1 737.6042145856377 187.0481261439379V548.9283050631796A56.2278088265521 56.2278088265521 0 0 1 681.4351907134259 605.0875314430014zM585.3609803365014 225.7776135618436H415.6292221711087A57.4035079133592 57.4035079133592 0 0 0 358.2942967044799 283.1125390284725V452.8540946862551A57.3937104209692 57.3937104209692 0 0 0 415.6292221711087 510.1890201528839H585.3609803365014A57.3937104209692 57.3937104209692 0 0 0 642.6959058031301 452.8540946862551V283.1125390284724A57.4035079133592 57.4035079133592 0 0 0 585.3609803365014 225.7776135618436zM415.6292221711087 478.8370445046932A26.0221397879983 26.0221397879983 0 0 1 389.6364748602806 452.8540946862551V283.1125390284724A26.0221397879983 26.0221397879983 0 0 1 415.6292221711087 257.1295892100343H585.3609803365014A26.0123422956083 26.0123422956083 0 0 1 611.3439301549395 283.1125390284724V452.8540946862551A26.0123422956083 26.0123422956083 0 0 1 585.3609803365014 478.8370445046932zM484.8191134297096 843.2253814757901H516.1612915855103V620.7635192670966H484.8191134297096V843.2253814757901zM611.3439301549395 774.5547573138623H642.6861083107401V620.7635192670966H611.3439301549395V774.5547573138623zM358.2942967044799 774.5547573138623H389.6364748602805V620.7635192670966H358.2942967044799V774.5547573138623zM484.8191134297096 115.2031144476308H516.1612915855103V-107.2587477610626H484.8191134297096V115.2031144476308zM611.3439301549395 115.2031144476308H642.6861083107401V-38.5881235991349H611.3439301549395V115.2031144476308zM358.2942967044799 115.2031144476308H389.6364748602805V-38.5881235991349H358.2942967044799V115.2031144476308zM753.280202409733 383.6544059352641H975.7420646184264V352.3024302870733H753.280202409733V383.6544059352641zM753.280202409733 257.1295892100343H907.0714404564986V225.7776135618436H753.280202409733V257.1295892100344zM753.280202409733 510.1890201528839H907.0714404564986V478.8370445046932H753.280202409733V510.1890201528839zM25.2579353815736 383.6544059352641H247.710000097877V352.3024302870733H25.2579353815737V383.6544059352641zM93.9187620511114 257.1295892100343H247.710000097877V225.7776135618436H93.9187620511114V257.1295892100344zM93.9187620511114 510.1890201528839H247.710000097877V478.8370445046932H93.9187620511114V510.1890201528839z" />
    <glyph glyph-name="video"
      unicode="&#xEA19;"
      horiz-adv-x="1000.985286335842" d="M0 732.9338546566322V-17.875H1000.985286335842V732.9338546566322zM370.2987858654751 173.1819290921919V541.8180709078081L689.5852980950142 357.5z" />
    <glyph glyph-name="warning"
      unicode="&#xEA1A;"
      horiz-adv-x="1000.9882290686736" d="M546.483143226717 126.8721425211667C546.483143226717 116.8668508936972 541.7394579021637 108.3211547507057 532.2050035277517 101.17619943556C522.6940910159925 94.0665569143935 511.629415569144 90.4999647224838 499.0109771872061 90.4999647224838C486.8516051269992 90.4999647224838 476.3637053151459 94.0194731890878 467.5472777516463 101.0467191909693C458.707308325494 108.0857361241771 454.293209078081 116.3136171213549 454.293209078081 125.7656749764819C454.293209078081 136.4772224835374 458.8956432267169 145.2347953904049 468.0534277986831 152.0030809031047C477.2229833019757 158.7478245531518 488.4524517873942 162.1260818438385 501.7653751175917 162.1260818438385C514.3838134995297 162.1260818438385 524.9894226246472 158.7478245531518 533.5704315616181 152.0030809031047C542.1985242238948 145.2465663217311 546.483143226717 136.8774341486361 546.483143226717 126.8721425211667M544.0818732361242 437.3069143932268C544.0818732361242 429.7146636876764 541.8807090780809 406.949682502352 537.5372354186267 369.0001999059268L518.2799917685795 203.5244473189089C517.126440498589 194.0723894637819 511.629415569144 189.3522460018816 501.7653751175918 189.3522460018816C491.6776869708374 189.3522460018816 486.0511817968016 194.0723894637819 484.9094014581374 203.5244473189089L463.2391168861712 369.0001999059268C458.8956432267169 403.4419449670745 456.7062500000001 425.5477539981187 456.7062500000001 435.3647107243651C456.7062500000001 469.7946848541864 471.9496060677329 487.0155573847602 502.448089134525 487.0155573847602C517.5972777516463 487.0155573847602 528.826746237065 480.9064440263406 536.1600364534337 468.6882173095015C541.6688323142051 459.8011641580434 544.3055209313264 449.336806208843 544.0818732361242 437.3069143932268M940.1501705079962 -43.2648988711193H60.826287629351C49.938176152399 -43.2648988711193 39.8858007996238 -37.461829727187 34.447630526811 -28.0333137347129S29.0094602539982 -6.9986594543742 34.447630526811 2.4298565380998L474.1154574317969 763.938487770461C479.5536277046098 773.3670037629352 489.6060030573849 779.1700729068675 500.494114534337 779.1700729068675C511.3704550799625 779.1700729068675 521.4346013640641 773.3670037629352 526.8845425682033 763.938487770461L966.5405985418626 2.4298565380998C971.9787688146756 -6.9986594543743 971.9787688146756 -18.6047977422389 966.5405985418626 -28.0333137347129S951.0382819849484 -43.2648988711193 940.1501705079962 -43.2648988711193zM113.583601834431 17.6614416745061H887.38108537159L500.494114534337 687.7923330197555L113.583601834431 17.6614416745061z" />
    <glyph glyph-name="wechat"
      unicode="&#xEA1B;"
      horiz-adv-x="1001" d="M374.9228848430337 756.8011004814606C487.9959793218682 752.6522853748515 600.1838740258012 712.5232289126493 678.1440441002087 602.9462264740824A389.5862564872132 389.5862564872132 0 0 0 711.6117487209802 536.1538798224224C719.4980739882848 518.6465953854811 713.0334332079433 509.2759957481398 693.2818543922115 508.4891515037829A407.9250922278498 407.9250922278498 0 0 1 549.4771273241191 477.1942099668605A315.479834927781 315.479834927781 0 0 1 413.567666935199 372.4813355843181A241.8830738448071 241.8830738448071 0 0 1 370.1660537294215 187.5550553367098C373.9393295375875 162.0183830425812 371.4983240977076 157.5029700493965 345.3536357965758 159.8366785468643A756.3003814168699 756.3003814168699 0 0 0 252.2914210776363 173.6422184705808A64.1546301506909 64.1546301506909 0 0 1 201.218076489379 166.4890889764272C181.1982553176163 154.0426436565998 160.5525353151152 142.5529294066154 139.7726941345987 131.3940473957357C135.3019882007527 128.9888076033265 126.4142248042667 127.289939348465 124.3666414865652 129.6057650221973A22.2730569624211 22.2730569624211 0 0 0 120.5933656783991 146.4692678046645A297.5791283686613 297.5791283686613 0 0 0 131.5197709807189 190.1122991308697C138.8964357715649 211.5716876133308 132.9503968795496 226.4144313136998 114.8708620830761 240.0322015881948A281.3683486525355 281.3683486525355 0 0 0 11.1504844178476 383.7206903020071C-21.1190710126532 488.7912211592571 18.0532543797059 600.836053273307 111.2406488647932 672.975364221847C180.3756454257886 726.5075970737198 263.5218343834576 754.5478646908023 374.9228848430337 756.8011004814606zM290.2477144559894 556.406177702745A49.3923591571312 49.3923591571312 0 0 1 240.2562807037228 605.1905208528731L238.5842366844643 605.1905208528731A50.4027386981805 50.4027386981805 0 0 1 239.2011941033351 504.3939848683799H239.2011941033351A50.4653285812543 50.4653285812543 0 0 1 290.2655972797247 554.2512974426311C290.2745386915924 554.9397861564435 290.2745386915924 555.6729819295942 290.2477144559894 556.406177702745zM534.5092038576026 554.4211842681173A50.2328518726943 50.2328518726943 0 0 1 484.893309403779 605.2709935596824C484.1064651594221 605.2709935596824 483.3196209150652 605.2709935596824 482.5327766707082 605.2709935596824A50.3133245795035 50.3133245795035 0 1 1 534.5092038576026 554.4390670918526zM1000.9647781713649 227.0582129681736C999.650390626814 155.7325704995935 967.881554260904 98.9009566685426 913.7055397545574 55.2936909898079C891.5666039701518 37.4913399612329 885.7904519036227 20.7083098855749 895.1252858934932 -5.1949602951292C899.1042141746161 -16.2286625398613 896.815212736487 -29.5245419871195 897.3785216841516 -41.792159069593A144.8508722566123 144.8508722566123 0 0 0 862.74843352058 -29.0953542174702C832.8304694112821 -8.5301069217784 803.3864001309721 -4.8194209966861 766.449427705536 -11.7221909585445C661.8885573247443 -31.2681173013195 564.4271679669002 -11.7758394297506 481.432983010982 59.3709748014754C380.3234976111196 146.1026699180891 371.8828048080182 281.6187081848307 460.9303255983639 380.7700243856686C587.2992995244568 521.4631401238041 848.5315886509497 508.1314950290752 959.3067402797874 355.2780591508785A208.0308885137248 208.0308885137248 0 0 0 1000.9647781713649 227.0582129681736zM599.8351589629611 352.881760770337A42.5968861376852 42.5968861376852 0 1 1 642.2710996870279 309.0688426186457A41.8636903645345 41.8636903645345 0 0 1 602.4102855808565 352.881760770337C601.5519100415581 352.8728193584693 600.6935345022597 352.8907021822047 599.8351589629611 352.881760770337zM800.8202149249445 352.881760770337A42.9724254361283 42.9724254361283 0 0 1 756.6585817104132 311.1253673482148C756.6585817104132 310.7945351091103 756.6585817104132 310.4637028700056 756.6585817104132 310.1239292190333A43.5357343837929 43.5357343837929 0 0 1 843.6942848305282 309.4264990933533A41.3093228287376 41.3093228287376 0 0 1 804.5934907331107 352.8102294753955C803.332751659766 352.8728193584693 802.0809539982891 352.881760770337 800.8202149249446 352.8102294753955z" />
  </font>
</defs>
</svg>
